<svg width="600" height="600" viewBox="0 0 600 600" fill="none" xmlns="http://www.w3.org/2000/svg">
<rect x="325" y="348" width="29" height="207" rx="14.5" fill="#E0C3B7"/>
<path fill-rule="evenodd" clip-rule="evenodd" d="M325 534.863V476.818C329.601 479.225 333.596 482.872 335.5 485C337.667 490.833 343.5 502.5 349.5 502.5C354.259 502.5 352.979 507.13 351.407 512.813C350.502 516.087 349.5 519.711 349.5 523C349.5 530.41 341.705 535.108 325 534.863Z" fill="#911C1C"/>
<rect x="242" y="348" width="29" height="207" rx="14.5" fill="#E0C3B7"/>
<rect x="234" y="524" width="46" height="31" rx="15.5" fill="#42271C"/>
<rect x="317" y="524" width="46" height="31" rx="15.5" fill="#42271C"/>
<rect x="153" y="237" width="293" height="184" rx="92" fill="#E8D3CA"/>
<rect x="174" y="189" width="251" height="265" rx="74" fill="#E8D3CA"/>
<rect x="351" y="379" width="29" height="207" rx="14.5" fill="#E8D3CA"/>
<rect x="219" y="379" width="29" height="207" rx="14.5" fill="#E8D3CA"/>
<path d="M182.5 120.41C163.3 133.21 123.5 135.41 106 134.91C114.5 120.744 136.4 90.2104 156 81.4104C175.6 72.6104 204.167 72.4104 216 73.4104C212.833 83.7438 201.7 107.61 182.5 120.41Z" fill="#E8D3CA"/>
<path d="M459.5 87.5642C440.3 74.7642 400.5 72.5642 383 73.0642C391.5 87.2308 413.4 117.764 433 126.564C452.6 135.364 481.167 135.564 493 134.564C489.833 124.231 478.7 100.364 459.5 87.5642Z" fill="#E8D3CA"/>
<path d="M435 50.5939C408.5 59.5939 358 62.0939 358 62.0939L365.5 88.5939C365.5 88.5939 411 83.0939 441.5 72.5939C472 62.0939 527 15.0939 525.5 13.0939C524 11.0939 461.5 41.5939 435 50.5939Z" fill="#DAA400"/>
<path d="M154.53 50.5939C181.03 59.5939 231.53 62.0939 231.53 62.0939L224.03 88.5939C224.03 88.5939 178.53 83.0939 148.03 72.5939C117.53 62.0939 62.5303 15.0939 64.0303 13.0939C65.5303 11.0939 128.03 41.5939 154.53 50.5939Z" fill="#DAA400"/>
<rect x="192" y="25" width="216" height="337" rx="108" fill="#F4EAE6"/>
<path fill-rule="evenodd" clip-rule="evenodd" d="M408 156.023V254C408 286.856 393.329 316.284 370.181 336.093L359.5 327C359.5 319.333 360.3 301.2 363.5 290C367.5 276 344.5 264.5 328.5 259C316.404 254.842 318.025 245.539 319.753 235.63C320.31 232.433 320.878 229.172 321 226C321.5 213 334 210 344.5 211.5C351.739 212.534 356.839 205.488 365.535 193.476C369.452 188.064 374.099 181.644 380 174.5C391.393 160.709 401.625 156.543 408 156.023Z" fill="#B13535"/>
<rect x="351" y="135" width="38" height="59" rx="19" fill="#FFFDFD"/>
<path fill-rule="evenodd" clip-rule="evenodd" d="M192 234.516C200.194 234.985 208.197 234.702 211.5 232.5C215.899 229.567 216.686 224.398 217.291 220.423C217.717 217.622 218.053 215.414 219.5 215C219.963 214.868 220.967 214.613 222.363 214.26C231.527 211.937 257.566 205.339 258 201C258.21 198.905 257.365 196.897 256.682 195.271C255.734 193.019 255.096 191.5 258 191.5C263 191.5 283.5 187.5 285 181.5C285.616 179.035 284.46 177.245 283.404 175.61C281.89 173.266 280.581 171.24 285 168C289.153 164.954 288.247 155.315 287.375 146.045C286.672 138.576 285.992 131.347 288 128C289.23 125.951 290.907 123.603 292.696 121.099C297.454 114.439 303 106.677 303 100.5C303 93.7001 310.667 57.6668 314.5 40.5001L283.387 26.27C231.627 34.2612 192 79.003 192 133V234.516Z" fill="#B13535"/>
<path fill-rule="evenodd" clip-rule="evenodd" d="M380 509.562V571.5C380 579.508 373.508 586 365.5 586C357.492 586 351 579.508 351 571.5V505.17C353.428 498.273 355.544 493.508 357 492.5C361.091 489.668 363.597 492.975 367.262 497.81C369.419 500.658 371.979 504.035 375.5 507C376.889 508.17 378.411 509.001 380 509.562Z" fill="#B13535"/>
<path d="M348 150C348 140.059 356.059 132 366 132H373C382.941 132 391 140.059 391 150C391 154.971 386.971 159 382 159H357C352.029 159 348 154.971 348 150Z" fill="#E8D3CA"/>
<rect x="211" y="555" width="46" height="31" rx="15.5" fill="#42271C"/>
<rect x="359" y="143" width="21" height="32" rx="10.5" fill="#E15050"/>
<rect x="343" y="555" width="46" height="31" rx="15.5" fill="#42271C"/>
<rect x="372" y="155" width="10" height="10" rx="5" fill="white"/>
<rect x="210" y="135" width="38" height="59" rx="19" fill="#FFFDFD"/>
<path fill-rule="evenodd" clip-rule="evenodd" d="M445.407 355.43C443.397 373.876 434.609 390.287 421.585 402.117C416.184 419.669 404.431 434.437 389.009 443.739C386.906 440.534 385.175 437.539 384.345 435.326C381.867 428.717 372.224 428.933 359.924 429.207C357.335 429.265 354.628 429.326 351.845 429.326C342.585 429.326 340.694 422.961 338.612 415.951C337.096 410.85 335.479 405.406 330.845 401.826C325.227 397.484 328.218 396.534 332.49 395.178C336.58 393.879 341.845 392.207 341.845 386.826C341.845 379.571 337.06 378.406 331.363 377.019C328.423 376.303 325.239 375.528 322.345 373.826C313.845 368.826 323.345 357.326 330.845 357.326C334.182 357.326 339.499 352.773 344.681 348.335C351.146 342.798 357.403 337.44 359.345 341.326C362.845 348.326 393.845 366.326 401.345 366.326C408.845 366.326 423.345 366.326 433.345 357.326C436.348 354.624 440.712 354.372 445.407 355.43Z" fill="#B13535"/>
<path fill-rule="evenodd" clip-rule="evenodd" d="M239 343.136C219.035 329.446 203.9 309.222 196.681 285.547C205.7 285.35 213.423 285.725 215 287.5C216.896 289.632 216.77 294.235 216.646 298.807C216.507 303.883 216.37 308.922 219 310.5C223 312.9 234 328.5 239 336V343.136Z" fill="#B13535"/>
<rect x="228" y="283" width="144" height="79" rx="39.5" fill="#FB8484"/>
<rect x="259" y="302" width="26" height="41" rx="13" fill="#A41919"/>
<rect x="315" y="302" width="26" height="41" rx="13" fill="#A41919"/>
<path d="M377 53C364.5 31.5 331.5 13 300.5 13C269.5 13 243 25.5 223.5 46C204 66.5 202 101 202 101C202 101 212 87.5 223.5 79C235 70.5 254.5 66.5 254.5 66.5C254.5 66.5 247.5 69.5 243 87.5C238.5 105.5 243 120.5 243 120.5C243 120.5 261 116 271.5 105.5C282 95 300.5 76 300.5 76C300.5 76 293 85 293 105.5C293 126 302.5 146 302.5 146C302.5 146 327 131.5 331.5 105.5C336 79.5 331.5 66.5 331.5 66.5C331.5 66.5 341 78.5 351 87.5C361 96.5 387 105.5 387 105.5C387 105.5 389.5 74.5 377 53Z" fill="#E8D3CA"/>
<path d="M207 150C207 140.059 215.059 132 225 132H232C241.941 132 250 140.059 250 150C250 154.971 245.971 159 241 159H216C211.029 159 207 154.971 207 150Z" fill="#E8D3CA"/>
<path fill-rule="evenodd" clip-rule="evenodd" d="M219 550.545V448.101C200.415 440.177 185.734 424.867 178.644 405.858C186.535 403.044 193.392 399.64 195.5 396C201 386.5 212.5 377 218 379C220.219 379.807 223.578 382.73 227.255 385.93C232.691 390.662 238.824 396 243 396C250 396 305 408.5 309.5 417C314 425.5 318 434.5 309.5 442C306.848 444.34 305.073 448.834 303.915 454H248V480.713C243.316 478.797 239.591 477.5 238 477.5C234.602 477.5 233.876 480.363 232.992 483.848C232.445 486.004 231.838 488.398 230.5 490.5C227 496 223 510 230.5 516.5C238 523 245.5 540 238 542.5C234.468 543.677 226.605 547.107 219 550.545Z" fill="#B13535"/>
<rect x="218" y="143" width="21" height="32" rx="10.5" fill="#A41919"/>
<rect x="232" y="155" width="10" height="10" rx="5" fill="white"/>
</svg>
